<?xml version="1.0" encoding="UTF-8" standalone="no"?><svg xmlns="http://www.w3.org/2000/svg" xmlns:xlink="http://www.w3.org/1999/xlink" contentScriptType="application/ecmascript" contentStyleType="text/css" height="334px" preserveAspectRatio="none" style="width:389px;height:334px;" version="1.1" viewBox="0 0 389 334" width="389px" zoomAndPan="magnify"><defs><filter height="300%" id="fjcfvgx" width="300%" x="-1" y="-1"><feGaussianBlur result="blurOut" stdDeviation="2.0"/><feColorMatrix in="blurOut" result="blurOut2" type="matrix" values="0 0 0 0 0 0 0 0 0 0 0 0 0 0 0 0 0 0 .4 0"/><feOffset dx="4.0" dy="4.0" in="blurOut2" result="blurOut3"/><feBlend in="SourceGraphic" in2="blurOut3" mode="normal"/></filter></defs><g><rect fill="#FEFECE" filter="url(#fjcfvgx)" height="72.8281" rx="12.5" ry="12.5" style="stroke: #A80036; stroke-width: 1.5;" width="211" x="6" y="8"/><line style="stroke: #A80036; stroke-width: 1.5;" x1="6" x2="217" y1="70.8281" y2="70.8281"/><text fill="#000000" font-family="sans-serif" font-size="14" lengthAdjust="spacingAndGlyphs" textLength="92" x="65.5" y="27.5332">send message</text><text fill="#000000" font-family="sans-serif" font-size="14" lengthAdjust="spacingAndGlyphs" textLength="183" x="20" y="45.1426">after receiviwing confirmation</text><text fill="#000000" font-family="sans-serif" font-size="14" lengthAdjust="spacingAndGlyphs" textLength="177" x="25" y="62.752">that previous one is finished</text><rect fill="#FEFECE" filter="url(#fjcfvgx)" height="50" rx="12.5" ry="12.5" style="stroke: #A80036; stroke-width: 1.5;" width="174" x="24.5" y="142"/><line style="stroke: #A80036; stroke-width: 1.5;" x1="24.5" x2="198.5" y1="169.6094" y2="169.6094"/><text fill="#000000" font-family="sans-serif" font-size="14" lengthAdjust="spacingAndGlyphs" textLength="154" x="34.5" y="161.5332">FireOnAfterConfirmation</text><rect fill="#FEFECE" filter="url(#fjcfvgx)" height="50" rx="12.5" ry="12.5" style="stroke: #A80036; stroke-width: 1.5;" width="202" x="10.5" y="275.5"/><line style="stroke: #A80036; stroke-width: 1.5;" x1="10.5" x2="212.5" y1="303.1094" y2="303.1094"/><text fill="#000000" font-family="sans-serif" font-size="14" lengthAdjust="spacingAndGlyphs" textLength="182" x="20.5" y="295.0332">FireOnAfterConfirmationHold</text><path d="M111.5,81.002 C111.5,98.744 111.5,119.951 111.5,136.744 " fill="none" style="stroke: #A80036; stroke-width: 1.0;"/><polygon fill="#A80036" points="111.5,141.805,115.5,132.805,111.5,136.805,107.5,132.805,111.5,141.805" style="stroke: #A80036; stroke-width: 1.0;"/><path d="M68.6394,192.033 C51.9016,204.812 38.4243,221.659 46.5,240 C51.8882,252.2371 61.1734,263.0537 71.0666,271.9934 " fill="none" style="stroke: #A80036; stroke-width: 1.0;"/><polygon fill="#A80036" points="75.0309,275.4531,70.8803,266.5216,71.2638,272.1654,65.62,272.549,75.0309,275.4531" style="stroke: #A80036; stroke-width: 1.0;"/><text fill="#000000" font-family="sans-serif" font-size="13" lengthAdjust="spacingAndGlyphs" textLength="82" x="47.5" y="236.4951">message sent</text><path d="M126.322,196.884 C129.689,204.819 132.779,213.567 134.5,222 C138.205,240.1518 131.974,260.1895 125.069,275.3421 " fill="none" style="stroke: #A80036; stroke-width: 1.0;"/><polygon fill="#A80036" points="124.199,192.058,124.1616,201.9068,126.2123,196.6347,131.4844,198.6855,124.199,192.058" style="stroke: #A80036; stroke-width: 1.0;"/><text fill="#000000" font-family="sans-serif" font-size="13" lengthAdjust="spacingAndGlyphs" textLength="128" x="136.5" y="236.4951">confirmation &amp;&amp; tiimer</text><path d="M212.624,294.378 C232.965,295.056 247.5,297.0967 247.5,300.5 C247.5,303.6108 235.356,305.5832 217.734,306.417 " fill="none" style="stroke: #A80036; stroke-width: 1.0;"/><polygon fill="#A80036" points="212.624,306.622,221.7778,310.2562,217.6199,306.4206,221.4556,302.2627,212.624,306.622" style="stroke: #A80036; stroke-width: 1.0;"/><text fill="#000000" font-family="sans-serif" font-size="13" lengthAdjust="spacingAndGlyphs" textLength="70" x="253.5" y="289.4951">confirmation</text><text fill="#000000" font-family="sans-serif" font-size="13" lengthAdjust="spacingAndGlyphs" textLength="51" x="265" y="305.8467">received:</text><text fill="#000000" font-family="sans-serif" font-size="13" lengthAdjust="spacingAndGlyphs" textLength="27" x="277" y="322.1982">false</text><path d="M212.688,288.266 C271.427,286.212 329.5,290.29 329.5,300.5 C329.5,310.4108 274.78,314.5438 217.848,312.8987 " fill="none" style="stroke: #A80036; stroke-width: 1.0;"/><polygon fill="#A80036" points="212.688,312.734,221.5566,317.0174,217.6855,312.8926,221.8103,309.0214,212.688,312.734" style="stroke: #A80036; stroke-width: 1.0;"/><text fill="#000000" font-family="sans-serif" font-size="13" lengthAdjust="spacingAndGlyphs" textLength="29" x="347.5" y="289.4951">timer</text><text fill="#000000" font-family="sans-serif" font-size="13" lengthAdjust="spacingAndGlyphs" textLength="49" x="339.5" y="305.8467">elapsed:</text><text fill="#000000" font-family="sans-serif" font-size="13" lengthAdjust="spacingAndGlyphs" textLength="27" x="350.5" y="322.1982">false</text></g></svg>