<?xml version="1.0" encoding="UTF-8" standalone="no"?><svg xmlns="http://www.w3.org/2000/svg" xmlns:xlink="http://www.w3.org/1999/xlink" contentScriptType="application/ecmascript" contentStyleType="text/css" height="311px" preserveAspectRatio="none" style="width:366px;height:311px;" version="1.1" viewBox="0 0 366 311" width="366px" zoomAndPan="magnify"><defs><filter height="300%" id="fncicdy" width="300%" x="-1" y="-1"><feGaussianBlur result="blurOut" stdDeviation="2.0"/><feColorMatrix in="blurOut" result="blurOut2" type="matrix" values="0 0 0 0 0 0 0 0 0 0 0 0 0 0 0 0 0 0 .4 0"/><feOffset dx="4.0" dy="4.0" in="blurOut2" result="blurOut3"/><feBlend in="SourceGraphic" in2="blurOut3" mode="normal"/></filter></defs><g><rect fill="#FEFECE" filter="url(#fncicdy)" height="55.2188" rx="12.5" ry="12.5" style="stroke: #A80036; stroke-width: 1.5;" width="152" x="39.4761" y="8"/><line style="stroke: #A80036; stroke-width: 1.5;" x1="39.4761" x2="191.4761" y1="53.2188" y2="53.2188"/><text fill="#000000" font-family="sans-serif" font-size="14" lengthAdjust="spacingAndGlyphs" textLength="128" x="49.4761" y="27.5332">Just send messages</text><text fill="#000000" font-family="sans-serif" font-size="14" lengthAdjust="spacingAndGlyphs" textLength="84" x="75.4761" y="45.1426">as they come</text><rect fill="#FEFECE" filter="url(#fncicdy)" height="50" rx="12.5" ry="12.5" style="stroke: #A80036; stroke-width: 1.5;" width="112" x="59.4761" y="124"/><line style="stroke: #A80036; stroke-width: 1.5;" x1="59.4761" x2="171.4761" y1="151.6094" y2="151.6094"/><text fill="#000000" font-family="sans-serif" font-size="14" lengthAdjust="spacingAndGlyphs" textLength="92" x="69.4761" y="143.5332">FireAndForget</text><rect fill="#FEFECE" filter="url(#fncicdy)" height="50" rx="12.5" ry="12.5" style="stroke: #A80036; stroke-width: 1.5;" width="140" x="45.4761" y="252"/><line style="stroke: #A80036; stroke-width: 1.5;" x1="45.4761" x2="185.4761" y1="279.6094" y2="279.6094"/><text fill="#000000" font-family="sans-serif" font-size="14" lengthAdjust="spacingAndGlyphs" textLength="120" x="55.4761" y="271.5332">FireAndForgetHold</text><path d="M115.476,63.207 C115.476,79.906 115.476,101.427 115.476,118.609 " fill="none" style="stroke: #A80036; stroke-width: 1.0;"/><polygon fill="#A80036" points="115.476,123.792,119.476,114.792,115.476,118.792,111.476,114.792,115.476,123.792" style="stroke: #A80036; stroke-width: 1.0;"/><path d="M171.906,138.876 C191.072,138.822 206.476,142.197 206.476,149 C206.476,155.165 193.825,158.515 177.188,159.049 " fill="none" style="stroke: #A80036; stroke-width: 1.0;"/><polygon fill="#A80036" points="171.906,159.124,180.9622,162.995,176.9055,159.0526,180.8479,154.9958,171.906,159.124" style="stroke: #A80036; stroke-width: 1.0;"/><text fill="#000000" font-family="sans-serif" font-size="13" lengthAdjust="spacingAndGlyphs" textLength="153" x="212.476" y="154.4951">increase message counter</text><path d="M59.2998,165.616 C40.4338,173.834 21.4206,186.064 10.4762,204 C-2.3677,225.0483 15.9211,241.4246 40.6484,253.2038 " fill="none" style="stroke: #A80036; stroke-width: 1.0;"/><polygon fill="#A80036" points="45.3344,255.3498,38.8171,247.9657,40.7884,253.268,35.4862,255.2393,45.3344,255.3498" style="stroke: #A80036; stroke-width: 1.0;"/><text fill="#000000" font-family="sans-serif" font-size="13" lengthAdjust="spacingAndGlyphs" textLength="163" x="11.4762" y="218.4951">message count &gt; parameter</text><path d="M158.051,251.7165 C174.623,238.8756 187.863,222.0488 179.476,204 C174.843,194.03 167.363,185.237 159.121,177.798 " fill="none" style="stroke: #A80036; stroke-width: 1.0;"/><polygon fill="#A80036" points="155.023,174.255,159.2159,183.1668,158.8056,177.5248,164.4476,177.1145,155.023,174.255" style="stroke: #A80036; stroke-width: 1.0;"/><text fill="#000000" font-family="sans-serif" font-size="13" lengthAdjust="spacingAndGlyphs" textLength="76" x="182.476" y="218.4951">timerElapsed</text></g></svg>