<?xml version="1.0" encoding="UTF-8" standalone="no"?><svg xmlns="http://www.w3.org/2000/svg" xmlns:xlink="http://www.w3.org/1999/xlink" contentScriptType="application/ecmascript" contentStyleType="text/css" height="311px" preserveAspectRatio="none" style="width:196px;height:311px;" version="1.1" viewBox="0 0 196 311" width="196px" zoomAndPan="magnify"><defs><filter height="300%" id="fxps6rc" width="300%" x="-1" y="-1"><feGaussianBlur result="blurOut" stdDeviation="2.0"/><feColorMatrix in="blurOut" result="blurOut2" type="matrix" values="0 0 0 0 0 0 0 0 0 0 0 0 0 0 0 0 0 0 .4 0"/><feOffset dx="4.0" dy="4.0" in="blurOut2" result="blurOut3"/><feBlend in="SourceGraphic" in2="blurOut3" mode="normal"/></filter></defs><g><rect fill="#FEFECE" filter="url(#fxps6rc)" height="55.2188" rx="12.5" ry="12.5" style="stroke: #A80036; stroke-width: 1.5;" width="128" x="32.5" y="8"/><line style="stroke: #A80036; stroke-width: 1.5;" x1="32.5" x2="160.5" y1="53.2188" y2="53.2188"/><text fill="#000000" font-family="sans-serif" font-size="14" lengthAdjust="spacingAndGlyphs" textLength="99" x="47" y="27.5332">send messages</text><text fill="#000000" font-family="sans-serif" font-size="14" lengthAdjust="spacingAndGlyphs" textLength="104" x="46.5" y="45.1426">on same interval</text><rect fill="#FEFECE" filter="url(#fxps6rc)" height="50" rx="12.5" ry="12.5" style="stroke: #A80036; stroke-width: 1.5;" width="153" x="20" y="124"/><line style="stroke: #A80036; stroke-width: 1.5;" x1="20" x2="173" y1="151.6094" y2="151.6094"/><text fill="#000000" font-family="sans-serif" font-size="14" lengthAdjust="spacingAndGlyphs" textLength="133" x="30" y="143.5332">FireOnSameIntervals</text><rect fill="#FEFECE" filter="url(#fxps6rc)" height="50" rx="12.5" ry="12.5" style="stroke: #A80036; stroke-width: 1.5;" width="181" x="6" y="252"/><line style="stroke: #A80036; stroke-width: 1.5;" x1="6" x2="187" y1="279.6094" y2="279.6094"/><text fill="#000000" font-family="sans-serif" font-size="14" lengthAdjust="spacingAndGlyphs" textLength="161" x="16" y="271.5332">FireOnSameIntervalsHold</text><path d="M96.5,63.207 C96.5,79.906 96.5,101.427 96.5,118.609 " fill="none" style="stroke: #A80036; stroke-width: 1.0;"/><polygon fill="#A80036" points="96.5,123.792,100.5,114.792,96.5,118.792,92.5,114.792,96.5,123.792" style="stroke: #A80036; stroke-width: 1.0;"/><path d="M59.4097,174.029 C49.8175,182.273 40.7265,192.393 35.5,204 C28.1217,220.3856 38.2647,235.9478 52.269,248.3842 " fill="none" style="stroke: #A80036; stroke-width: 1.0;"/><polygon fill="#A80036" points="56.31,251.8071,52.0279,242.9379,52.4947,248.5754,46.8572,249.0423,56.31,251.8071" style="stroke: #A80036; stroke-width: 1.0;"/><text fill="#000000" font-family="sans-serif" font-size="13" lengthAdjust="spacingAndGlyphs" textLength="74" x="36.5" y="218.4951">wait for timer</text><path d="M108.217,251.9066 C113.61,238.0304 118.264,220.1841 115.5,204 C114.087,195.725 111.537,187.032 108.756,179.097 " fill="none" style="stroke: #A80036; stroke-width: 1.0;"/><polygon fill="#A80036" points="107.002,174.265,106.3123,184.0897,108.7077,178.9651,113.8324,181.3605,107.002,174.265" style="stroke: #A80036; stroke-width: 1.0;"/><text fill="#000000" font-family="sans-serif" font-size="13" lengthAdjust="spacingAndGlyphs" textLength="76" x="116.5" y="218.4951">timerElapsed</text></g></svg>