<?xml version="1.0" encoding="UTF-8" standalone="no"?><svg xmlns="http://www.w3.org/2000/svg" xmlns:xlink="http://www.w3.org/1999/xlink" contentScriptType="application/ecmascript" contentStyleType="text/css" height="329px" preserveAspectRatio="none" style="width:975px;height:329px;" version="1.1" viewBox="0 0 975 329" width="975px" zoomAndPan="magnify"><defs><filter height="300%" id="fenz6zc" width="300%" x="-1" y="-1"><feGaussianBlur result="blurOut" stdDeviation="2.0"/><feColorMatrix in="blurOut" result="blurOut2" type="matrix" values="0 0 0 0 0 0 0 0 0 0 0 0 0 0 0 0 0 0 .4 0"/><feOffset dx="4.0" dy="4.0" in="blurOut2" result="blurOut3"/><feBlend in="SourceGraphic" in2="blurOut3" mode="normal"/></filter></defs><g><rect fill="#FEFECE" filter="url(#fenz6zc)" height="55.2188" rx="12.5" ry="12.5" style="stroke: #A80036; stroke-width: 1.5;" width="152" x="368" y="17"/><line style="stroke: #A80036; stroke-width: 1.5;" x1="368" x2="520" y1="62.2188" y2="62.2188"/><text fill="#000000" font-family="sans-serif" font-size="14" lengthAdjust="spacingAndGlyphs" textLength="128" x="378" y="36.5332">Just send messages</text><text fill="#000000" font-family="sans-serif" font-size="14" lengthAdjust="spacingAndGlyphs" textLength="84" x="404" y="54.1426">as they come</text><rect fill="#FEFECE" filter="url(#fenz6zc)" height="50" rx="12.5" ry="12.5" style="stroke: #A80036; stroke-width: 1.5;" width="112" x="388" y="142"/><line style="stroke: #A80036; stroke-width: 1.5;" x1="388" x2="500" y1="169.6094" y2="169.6094"/><text fill="#000000" font-family="sans-serif" font-size="14" lengthAdjust="spacingAndGlyphs" textLength="92" x="398" y="161.5332">FireAndForget</text><rect fill="#FEFECE" filter="url(#fenz6zc)" height="50" rx="12.5" ry="12.5" style="stroke: #A80036; stroke-width: 1.5;" width="140" x="577" y="270"/><line style="stroke: #A80036; stroke-width: 1.5;" x1="577" x2="717" y1="297.6094" y2="297.6094"/><text fill="#000000" font-family="sans-serif" font-size="14" lengthAdjust="spacingAndGlyphs" textLength="120" x="587" y="289.5332">FireAndForgetHold</text><rect fill="#FEFECE" filter="url(#fenz6zc)" height="55.2188" rx="12.5" ry="12.5" style="stroke: #A80036; stroke-width: 1.5;" width="128" x="772" y="17"/><line style="stroke: #A80036; stroke-width: 1.5;" x1="772" x2="900" y1="62.2188" y2="62.2188"/><text fill="#000000" font-family="sans-serif" font-size="14" lengthAdjust="spacingAndGlyphs" textLength="99" x="786.5" y="36.5332">send messages</text><text fill="#000000" font-family="sans-serif" font-size="14" lengthAdjust="spacingAndGlyphs" textLength="104" x="786" y="54.1426">on same interval</text><rect fill="#FEFECE" filter="url(#fenz6zc)" height="50" rx="12.5" ry="12.5" style="stroke: #A80036; stroke-width: 1.5;" width="153" x="759.5" y="142"/><line style="stroke: #A80036; stroke-width: 1.5;" x1="759.5" x2="912.5" y1="169.6094" y2="169.6094"/><text fill="#000000" font-family="sans-serif" font-size="14" lengthAdjust="spacingAndGlyphs" textLength="133" x="769.5" y="161.5332">FireOnSameIntervals</text><rect fill="#FEFECE" filter="url(#fenz6zc)" height="50" rx="12.5" ry="12.5" style="stroke: #A80036; stroke-width: 1.5;" width="181" x="785.5" y="270"/><line style="stroke: #A80036; stroke-width: 1.5;" x1="785.5" x2="966.5" y1="297.6094" y2="297.6094"/><text fill="#000000" font-family="sans-serif" font-size="14" lengthAdjust="spacingAndGlyphs" textLength="161" x="795.5" y="289.5332">FireOnSameIntervalsHold</text><rect fill="#FEFECE" filter="url(#fenz6zc)" height="72.8281" rx="12.5" ry="12.5" style="stroke: #A80036; stroke-width: 1.5;" width="211" x="60.5" y="8"/><line style="stroke: #A80036; stroke-width: 1.5;" x1="60.5" x2="271.5" y1="70.8281" y2="70.8281"/><text fill="#000000" font-family="sans-serif" font-size="14" lengthAdjust="spacingAndGlyphs" textLength="92" x="120" y="27.5332">send message</text><text fill="#000000" font-family="sans-serif" font-size="14" lengthAdjust="spacingAndGlyphs" textLength="183" x="74.5" y="45.1426">after receiviwing confirmation</text><text fill="#000000" font-family="sans-serif" font-size="14" lengthAdjust="spacingAndGlyphs" textLength="177" x="79.5" y="62.752">that previous one is finished</text><rect fill="#FEFECE" filter="url(#fenz6zc)" height="50" rx="12.5" ry="12.5" style="stroke: #A80036; stroke-width: 1.5;" width="174" x="79" y="142"/><line style="stroke: #A80036; stroke-width: 1.5;" x1="79" x2="253" y1="169.6094" y2="169.6094"/><text fill="#000000" font-family="sans-serif" font-size="14" lengthAdjust="spacingAndGlyphs" textLength="154" x="89" y="161.5332">FireOnAfterConfirmation</text><rect fill="#FEFECE" filter="url(#fenz6zc)" height="50" rx="12.5" ry="12.5" style="stroke: #A80036; stroke-width: 1.5;" width="202" x="6" y="270"/><line style="stroke: #A80036; stroke-width: 1.5;" x1="6" x2="208" y1="297.6094" y2="297.6094"/><text fill="#000000" font-family="sans-serif" font-size="14" lengthAdjust="spacingAndGlyphs" textLength="182" x="16" y="289.5332">FireOnAfterConfirmationHold</text><path d="M444,72.243 C444,91.337 444,117.016 444,136.671 " fill="none" style="stroke: #A80036; stroke-width: 1.0;"/><polygon fill="#A80036" points="444,141.787,448,132.787,444,136.787,440,132.787,444,141.787" style="stroke: #A80036; stroke-width: 1.0;"/><path d="M500.43,156.876 C519.595,156.822 535,160.197 535,167 C535,173.165 522.348,176.515 505.712,177.049 " fill="none" style="stroke: #A80036; stroke-width: 1.0;"/><polygon fill="#A80036" points="500.43,177.124,509.4862,180.995,505.4295,177.0526,509.3719,172.9958,500.43,177.124" style="stroke: #A80036; stroke-width: 1.0;"/><text fill="#000000" font-family="sans-serif" font-size="13" lengthAdjust="spacingAndGlyphs" textLength="153" x="541" y="172.4951">increase message counter</text><path d="M435.239,192.086 C431.344,207.334 429.667,226.6256 440,240 C440.269,240.3478 512.707,259.1939 571.807,274.5232 " fill="none" style="stroke: #A80036; stroke-width: 1.0;"/><polygon fill="#A80036" points="576.758,275.8072,569.051,269.6752,571.9182,274.5515,567.0419,277.4188,576.758,275.8072" style="stroke: #A80036; stroke-width: 1.0;"/><text fill="#000000" font-family="sans-serif" font-size="13" lengthAdjust="spacingAndGlyphs" textLength="163" x="441" y="236.4951">message count &gt; parameter</text><path d="M639.595,269.8841 C633.643,254.2276 623.801,234.4853 609,222 C579.685,197.272 538.748,183.785 504.985,176.473 " fill="none" style="stroke: #A80036; stroke-width: 1.0;"/><polygon fill="#A80036" points="500.058,175.439,508.0442,181.2027,504.9513,176.4662,509.6878,173.3734,500.058,175.439" style="stroke: #A80036; stroke-width: 1.0;"/><text fill="#000000" font-family="sans-serif" font-size="13" lengthAdjust="spacingAndGlyphs" textLength="76" x="625" y="236.4951">timerElapsed</text><path d="M836,72.243 C836,91.337 836,117.016 836,136.671 " fill="none" style="stroke: #A80036; stroke-width: 1.0;"/><polygon fill="#A80036" points="836,141.787,840,132.787,836,136.787,832,132.787,836,141.787" style="stroke: #A80036; stroke-width: 1.0;"/><path d="M811.275,192.03 C799.949,206.041 790.699,224.0405 799,240 C804.472,250.5202 813.036,259.4174 822.497,266.7658 " fill="none" style="stroke: #A80036; stroke-width: 1.0;"/><polygon fill="#A80036" points="826.601,269.8204,821.7702,261.2377,822.5903,266.8348,816.9932,267.6549,826.601,269.8204" style="stroke: #A80036; stroke-width: 1.0;"/><text fill="#000000" font-family="sans-serif" font-size="13" lengthAdjust="spacingAndGlyphs" textLength="74" x="800" y="236.4951">wait for timer</text><path d="M881.414,269.6705 C883.522,255.3986 884.325,237.2352 879,222 C875.797,212.836 870.316,204.066 864.32,196.356 " fill="none" style="stroke: #A80036; stroke-width: 1.0;"/><polygon fill="#A80036" points="860.946,192.187,863.4983,201.6994,864.0914,196.0737,869.7171,196.6668,860.946,192.187" style="stroke: #A80036; stroke-width: 1.0;"/><text fill="#000000" font-family="sans-serif" font-size="13" lengthAdjust="spacingAndGlyphs" textLength="76" x="883" y="236.4951">timerElapsed</text><path d="M166,81.002 C166,98.744 166,119.951 166,136.744 " fill="none" style="stroke: #A80036; stroke-width: 1.0;"/><polygon fill="#A80036" points="166,141.805,170,132.805,166,136.805,162,132.805,166,141.805" style="stroke: #A80036; stroke-width: 1.0;"/><path d="M125.848,192.144 C115.88,200.279 106.485,210.313 101,222 C94.7826,235.2482 95.4786,251.3756 98.0779,265.0061 " fill="none" style="stroke: #A80036; stroke-width: 1.0;"/><polygon fill="#A80036" points="99.1123,269.9049,101.1663,260.2726,98.0792,265.0128,93.339,261.9256,99.1123,269.9049" style="stroke: #A80036; stroke-width: 1.0;"/><text fill="#000000" font-family="sans-serif" font-size="13" lengthAdjust="spacingAndGlyphs" textLength="82" x="102" y="236.4951">message sent</text><path d="M185.455,196.746 C192.119,210.34 196.27,226.5076 189,240 C182.451,252.1549 171.837,262.0241 160.386,269.8372 " fill="none" style="stroke: #A80036; stroke-width: 1.0;"/><polygon fill="#A80036" points="183.111,192.242,183.7178,202.0721,185.4193,196.6773,190.8142,198.3788,183.111,192.242" style="stroke: #A80036; stroke-width: 1.0;"/><text fill="#000000" font-family="sans-serif" font-size="13" lengthAdjust="spacingAndGlyphs" textLength="128" x="194" y="236.4951">confirmation &amp;&amp; tiimer</text><path d="M208.124,289.2381 C228.465,289.8763 243,291.7969 243,295 C243,297.9279 230.856,299.7842 213.234,300.5689 " fill="none" style="stroke: #A80036; stroke-width: 1.0;"/><polygon fill="#A80036" points="208.124,300.7619,217.2685,304.4196,213.1204,300.5733,216.9667,296.4253,208.124,300.7619" style="stroke: #A80036; stroke-width: 1.0;"/><text fill="#000000" font-family="sans-serif" font-size="13" lengthAdjust="spacingAndGlyphs" textLength="156" x="249" y="300.4951">confirmation received: false</text><path d="M208.252,284.4504 C298.851,280.7022 411,284.2187 411,295 C411,305.5812 302.974,309.1648 213.317,305.7508 " fill="none" style="stroke: #A80036; stroke-width: 1.0;"/><polygon fill="#A80036" points="208.252,305.5496,217.086,309.9039,213.2481,305.7482,217.4038,301.9102,208.252,305.5496" style="stroke: #A80036; stroke-width: 1.0;"/><text fill="#000000" font-family="sans-serif" font-size="13" lengthAdjust="spacingAndGlyphs" textLength="113" x="417" y="300.4951">timer elapsed: false</text></g></svg>